<?xml version="1.0" encoding="UTF-8"?>
<svg enable-background="new 0 0 429.25 300.14" viewBox="0 0 429.25 300.14" xmlns="http://www.w3.org/2000/svg">
 <path d="m.125.125h429v299.89h-429z" fill="#239e46" stroke="#000" stroke-width=".25"/>
 <path d="m34.125 149.62 180.5 116 181.5-116-182.5-117z" fill="#f7f409" stroke="#000" stroke-width=".25"/>
 <path d="m292.12 148.12a75.5 75.5 0 1 0 -151 0 75.5 75.5 0 1 0 151 0" fill="#3b5aa3" stroke="#000" stroke-width=".25"/>
 <path d="m291.12 160.75s-25.92-21.694-61-33.958c-35.291-12.337-79.746-15.237-81-12.667-2.5 5.125-4.625 12-4.625 12s35.132-1.827 75.959 11.667c22.224 7.345 48.028 19.938 66.416 38.208 3.083-7.333 4.25-15.25 4.25-15.25z" fill="#fff" stroke="#000" stroke-width=".25"/>
 <path d="m157.125,138.792-2.171-1.397-2.381.996 .658-2.496-1.684-1.958 2.578-.145 1.341-2.206 .935,2.406 2.513.594-2,1.633z" fill="#fff" stroke="#000" stroke-width=".25"/>
 <path d="m191.125,154.459-2.271-1.101-2.195,1.247 .345-2.501-1.864-1.701 2.485-.445 1.042-2.298 1.191,2.225 2.508.282-1.749,1.819z" fill="#fff" stroke="#000" stroke-width=".25"/>
 <path d="m163.792,170.125-2.271-1.101-2.195,1.247 .345-2.5-1.863-1.702 2.484-.444 1.042-2.299 1.19,2.226 2.509.281-1.749,1.82z" fill="#fff" stroke="#000" stroke-width=".25"/>
 <path d="m152.458,175.792-1.58-.701-1.474.904 .179-1.72-1.316-1.122 1.691-.361 .661-1.598 .866,1.496 1.724.134-1.155,1.287z" fill="#fff" stroke="#000" stroke-width=".25"/>
 <path d="m170.458,164.459-1.085-.699-1.191.498 .329-1.248-.842-.979 1.289-.072 .671-1.104 .468,1.204 1.256.297-1,.817z" fill="#fff" stroke="#000" stroke-width=".25"/>
 <path d="m178.458,175.125-1.381-.799-1.442.686 .333-1.562-1.097-1.159 1.587-.166 .764-1.402 .648,1.459 1.569.293-1.187,1.067z" fill="#fff" stroke="#000" stroke-width=".25"/>
 <path d="m175.458,183.459-1.381-.799-1.442.686 .333-1.562-1.097-1.159 1.587-.166 .764-1.402 .648,1.459 1.569.293-1.187,1.067z" fill="#fff" stroke="#000" stroke-width=".25"/>
 <path d="m191.125,192.125-1.975-1-1.942,1.06 .34-2.187-1.608-1.52 2.185-.352 .949-1.999 1.01,1.969 2.194.285-1.56,1.568z" fill="#fff" stroke="#000" stroke-width=".25"/>
 <path d="m219.458,161.792-2.27-1.101-2.195,1.247 .345-2.5-1.864-1.702 2.484-.444 1.043-2.299 1.19,2.226 2.508.281-1.749,1.82z" fill="#fff" stroke="#000" stroke-width=".25"/>
 <path d="m237.792,150.792-1.975-1-1.943,1.059 .341-2.187-1.609-1.521 2.186-.351 .949-2 1.01,1.97 2.195.285-1.561,1.569z" fill="#fff" stroke="#000" stroke-width=".25"/>
 <path d="m211.458,167.792-1.381-.799-1.442.686 .333-1.562-1.097-1.159 1.587-.166 .764-1.401 .648,1.458 1.569.293-1.187,1.067z" fill="#fff" stroke="#000" stroke-width=".25"/>
 <path d="m226.125,168.792-1.284-.601-1.223.717 .175-1.407-1.06-.941 1.392-.269 .568-1.298 .686,1.24 1.41.139-.968,1.035z" fill="#fff" stroke="#000" stroke-width=".25"/>
 <path d="m217.125,174.792-1.284-.601-1.223.717 .175-1.406-1.06-.941 1.392-.27 .567-1.299 .686,1.241 1.411.139-.968,1.035z" fill="#fff" stroke="#000" stroke-width=".25"/>
 <path d="m221.125,186.125-2.271-1.101-2.194,1.247 .345-2.5-1.864-1.702 2.484-.444 1.043-2.299 1.19,2.226 2.508.281-1.749,1.82z" fill="#fff" stroke="#000" stroke-width=".25"/>
 <path d="m235.125,191.125-1.283-.601-1.223.717 .175-1.405-1.06-.941 1.391-.269 .567-1.298 .686,1.239 1.41.139-.967,1.035z" fill="#fff" stroke="#000" stroke-width=".25"/>
 <path d="m247.125,190.125-1.283-.601-1.223.717 .175-1.405-1.06-.941 1.391-.269 .567-1.298 .686,1.239 1.41.139-.967,1.035z" fill="#fff" stroke="#000" stroke-width=".25"/>
 <path d="m256.792,190.459-1.085-.699-1.191.498 .329-1.248-.842-.979 1.289-.072 .671-1.104 .467,1.204 1.257.297-1,.817z" fill="#fff" stroke="#000" stroke-width=".25"/>
 <path d="m263.125,190.792-1.085-.699-1.191.498 .329-1.248-.842-.979 1.289-.073 .671-1.103 .468,1.204 1.256.297-1,.817z" fill="#fff" stroke="#000" stroke-width=".25"/>
 <path d="m269.792,189.459-1.58-.701-1.474.904 .178-1.72-1.315-1.122 1.69-.361 .661-1.598 .866,1.496 1.724.134-1.155,1.287z" fill="#fff" stroke="#000" stroke-width=".25"/>
 <path d="m218.792,207.459-.987-.5-.973.529 .17-1.093-.804-.761 1.093-.176 .475-1 .505.985 1.098.143-.781.784z" fill="#fff" stroke="#000" stroke-width=".25"/>
 <path d="m242.356,205.461-1.942-1.015-1.937,1.025 .365-2.161-1.573-1.526 2.168-.321 .964-1.968 .975,1.963 2.17.31-1.566,1.534z" fill="#fff" stroke="#000" stroke-width=".25"/>
 <path d="m256.125,205.125-1.085-.698-1.19.498 .329-1.248-.842-.978 1.288-.073 .67-1.103 .468,1.203 1.256.296-.999.817z" fill="#fff" stroke="#000" stroke-width=".25"/>
 <path d="m256.792,198.125-1.187-.401-1.002.749 .015-1.252-1.022-.723 1.195-.373 .371-1.195 .724,1.022 1.252-.016-.748,1.003z" fill="#fff" stroke="#000" stroke-width=".25"/>
 <path d="m272.792,182.459-1.284-.601-1.223.718 .174-1.407-1.06-.941 1.392-.269 .567-1.3 .687,1.241 1.411.138-.969,1.036z" fill="#fff" stroke="#000" stroke-width=".25"/>
 <path d="m271.792,177.459-1.679-.9-1.693.873 .338-1.875-1.354-1.34 1.887-.259 .857-1.701 .83,1.715 1.882.289-1.375,1.318z" fill="#fff" stroke="#000" stroke-width=".25"/>
 <path d="m281.125,175.125-1.283-.601-1.223.717 .175-1.405-1.06-.941 1.391-.269 .567-1.298 .686,1.239 1.41.139-.967,1.035z" fill="#fff" stroke="#000" stroke-width=".25"/>
 <switch>
  <g>
   <g fill="#093" font-family="'LucidaGrande-Bold'" font-size="12" stroke="#000" stroke-width=".25">
    <text transform="matrix(1.0499 -.0006198 .00059033 1 151.44 124.54)">O</text>
    <text transform="matrix(1.0487 .0514 -.049 .9988 161.8 124.56)">R</text>
    <text transform="matrix(1.0451 .1009 -.0961 .9954 170.5 124.97)">D</text>
    <text transform="matrix(1.0397 .146 -.139 .9903 180.43 125.96)">E</text>
    <text transform="matrix(1.0319 .194 -.1847 .9828 187.94 126.96)">M</text>
    <text transform="matrix(1.0238 .2328 -.2218 .9751 199.17 129.15)"></text>
    <text transform="matrix(1.0189 .2534 -.2413 .9704 203.22 130.07)"></text>
    <text transform="matrix(1.0136 .2737 -.2607 .9654 207.24 131.07)"></text>
    <text transform="matrix(1.0079 .294 -.28 .96 211.25 132.15)"></text>
    <text transform="matrix(.9991 .3228 -.3075 .9516 215.25 133.29)">P</text>
    <text transform="matrix(.9855 .3621 -.3449 .9387 222.6 135.65)">R</text>
    <text transform="matrix(.9679 .4069 -.3876 .9218 230.77 138.64)">O</text>
    <text transform="matrix(.9475 .4523 -.4308 .9025 240.33 142.67)">G</text>
    <text transform="matrix(.9271 .4927 -.4693 .8831 248.81 146.73)">R</text>
    <text transform="matrix(.9076 .5279 -.5028 .8644 256.48 150.81)">E</text>
    <text transform="matrix(.8888 .5589 -.5323 .8466 263.02 154.62)">S</text>
    <text transform="matrix(.8698 .588 -.5601 .8284 269.1 158.45)">S</text>
    <text transform="matrix(.8456 .6223 -.5927 .8054 275.09 162.45)">O</text>
    <text transform="matrix(.825 .6495 -.6186 .7857 283.42 168.65)"></text>
    <text transform="matrix(.8356 .6358 -.6055 .7958 280.46 166.41)"></text>
   </g>
  </g>
 </switch>
 <path d="m213.62 32.625" fill="#fff" stroke="#000" stroke-width=".25"/>
 <path d="m244.792,126.792-1.975-1-1.943,1.059 .341-2.187-1.609-1.521 2.186-.351 .949-2 1.01,1.97 2.195.285-1.561,1.569z" fill="#fff" stroke="#000" stroke-width=".25"/>
 <switch>
  <g>
   <text transform="matrix(1.0186 .2545 -.2424 .9702 205.26 128.35)">
    <tspan x="0" y="0" fill="#093" font-family="'LucidaGrande-Bold'" font-size="8" stroke="#000" stroke-width=".25">E</tspan>
   </text>
  </g>
 </switch>
</svg>
