<svg xmlns="http://www.w3.org/2000/svg" viewBox="0 0 479.97 258.47"><defs><style>.cls-1{fill:#77019b;}.cls-2{fill:#fccf1c;}.cls-3{fill:#fdcf1a;}.cls-4{fill:#fdcf1b;}.cls-5{fill:#fccf1d;}.cls-6{fill:#fcce1e;}.cls-7{fill:#f1af6f;}.cls-8{fill:#86246a;}.cls-9{fill:#841f73;}.cls-10{fill:#7e1d5f;}.cls-11{fill:#780496;}</style></defs><title>Ativo 1</title><g id="Camada_2" data-name="Camada 2"><g id="Camada_1-2" data-name="Camada 1"><path class="cls-1" d="M240,258.45q-119.43,0-238.84,0c-.94,0-1.15-.2-1.15-1.1Q0,129.24,0,1.1C0,.2.21,0,1.15,0Q240,0,478.83,0c.93,0,1.14.2,1.14,1.1q0,128.13,0,256.27c0,.9-.21,1.1-1.14,1.1Q359.4,258.42,240,258.45ZM114.39,155.07h0c.1.12.18.3.31.36a15.48,15.48,0,0,0,5.57.88c.28,0,.36-.29.12-.52l.13-.5c.93-.25.15-.82.16-1.16.07-4.5,0-9,0-13.49a25,25,0,0,1,.1-3.68,97.78,97.78,0,0,0,.88-10.66c0-.36,0-.72.08-1.07.92-6.14,2-12.26,3.46-18.31,1.84-7.56,3.93-15,7.68-22a1.12,1.12,0,0,0-.39-1.64,18.65,18.65,0,0,0-3.42-2,37.64,37.64,0,0,0-8.67-3c-.94-.19-1.8-.29-1.72,1,0,.52-.36.78-.76,1a54.25,54.25,0,0,0-9.81,6.93,42.93,42.93,0,0,0-6.21,6l0,0c-.48.12-.7.53-1,.84-2.61,2.67-5,5.49-7.37,8.38a54.75,54.75,0,0,0-4.87,6.6v0a13.2,13.2,0,0,0-2.64,3.7,7.48,7.48,0,0,1-6.44,4.34,11,11,0,0,0-6,2.47c-.25.21-.57.46-.48.78s.57.23.86.24c1.83.09,3.65.15,5.48.2.87,0,1.3.26.74,1.13a3.28,3.28,0,0,0-.24.54,174.43,174.43,0,0,0-8.42,15.79,41.28,41.28,0,0,0-3.76,10.44,4.12,4.12,0,0,0,2.47,4.85A14.85,14.85,0,0,0,74,155.06c.22.28.58.3.89.4,1.43.46,1.48.41,1.62-1.06.09-1,.19-2.06.37-3.08,1.82-10.41,5.85-20,11.06-29.28a1.68,1.68,0,0,1,1.77-1c6.11.28,12.22.52,18.33.78,1.56.07,1.64.16,1.42,1.64-.74,4.77-1.22,9.56-1.52,14.37-.12.2-.34.4-.35.6a117.19,117.19,0,0,0-.14,12.85.62.62,0,0,0,.51.59.11.11,0,0,1,.06.17l.42.35a2.8,2.8,0,0,1,1.09.68A7.55,7.55,0,0,0,114.39,155.07Zm149.6-27c-.44,0-.6.34-.77.69a40.4,40.4,0,0,0-1.82,4.8,26.62,26.62,0,0,0-1.12,11,4.81,4.81,0,0,0,1.69,3.8l0,.05a1.2,1.2,0,0,0,.38,1,7.87,7.87,0,0,0,5.47,2.52c3.59.38,6.62-1.19,9.4-3.18a1.65,1.65,0,0,0,.44-2.18c-.39-.85-1.12-.86-1.89-.74-.44.07-.86.3-1.31.36-2.45.33-3.3.07-3.33-2.41-.05-3.39,1.1-6.5,2.25-9.6a88.5,88.5,0,0,1,4.9-10.5c1.72-3.25,3.1-6.66,4.64-10,1.17-2.56.06-4.42-2.41-5.52a9.66,9.66,0,0,0-7.62.06,18.63,18.63,0,0,0-5.59,3.51c-1.19,1-2.81,1.77-3.34,3.42h0c-.73,0-1.08.55-1.5,1-2.82,2.79-5.27,5.87-7.84,8.86a1.78,1.78,0,0,0-.62,1.37l-.08.08c-.3,0-.72-.63-.87,0-.21.88-.93,1.39-1.38,2.09-.19.29-.31.92-.87.5a.74.74,0,0,1,.06-1.24c.63-.34.66-.82.74-1.36a3.15,3.15,0,0,1,.61-1.28,41.72,41.72,0,0,0,2.57-4.14c1.26-2.39,2.54-4.77,3.81-7.16.49-.92,1.08-2.16.22-3a4.31,4.31,0,0,0-3.45-1.6c-.31-.1-.64-.17-.94-.29a9.09,9.09,0,0,0-7.82.34,36.64,36.64,0,0,0-9.17,7.27,166.42,166.42,0,0,0-14.58,17.71,5,5,0,0,1-1.77,1.82,19.64,19.64,0,0,1,1.11-4.07,63.44,63.44,0,0,1,6.39-11.86c2.18-3.44,4.52-6.78,6.09-10.54.22-.52.49-1,0-1.55a19.15,19.15,0,0,0-8.16-4.64,1.49,1.49,0,0,0-1.9.84A174.22,174.22,0,0,0,216.05,120c-3,6.5-5.41,13.19-6.19,20.32a11.06,11.06,0,0,0,4.07,10.05c.73.63,1.21.51,1.72-.16s1.16-1.45,1.69-2.21c5.21-7.48,10.43-14.95,16.64-21.73,3-3.29,6-6.62,9.82-9.11a3.47,3.47,0,0,1,2.32-.79c-.8,1.18-1.52,2.22-2.22,3.28a63.91,63.91,0,0,0-9.83,22.83,4.46,4.46,0,0,0,.07,2.93,10.72,10.72,0,0,0,4.41,4.88c1,.58,1.56.48,2.24-.42,3.07-4.06,6.21-8.07,9.32-12.1.54.08.71-.37.95-.66,1-1.29,2-2.63,3.08-3.89,2.3-2.71,4.38-5.58,6.95-8.08a37.44,37.44,0,0,1,5.11-4.54c.24-.17.53-.52.87-.25s.06.59-.09.87c-.73,1.38-1.5,2.75-2.18,4.15a4.64,4.64,0,0,0-.8,2.6Zm62.41-17c0-.11,0-.27-.12-.32-1.36-1-3-1-4.59-1.22a.49.49,0,0,0-.39.24c-.5,1-1.31,2-1.26,3.17-1.26,2.74-2.8,5.34-4.28,8-3.83,6.75-7.86,13.39-13,19.34a17.84,17.84,0,0,1-4.83,4.1c-2,1.1-3.21.43-3.17-1.8a21.48,21.48,0,0,1,.93-5.78,40.11,40.11,0,0,1,8.57-15c3.69-4.19,7.81-7.85,13.57-9.28.81-.2.58-.61.36-1.06a15,15,0,0,0-5.7-6,4,4,0,0,0-3.35-.38,17.85,17.85,0,0,0-7.05,3.68,45.16,45.16,0,0,0-15.76,25.79c-.91,4.29-.87,8.59,1.6,12.53,1.51,2.41,4.68,4.62,8,3.26a20.21,20.21,0,0,0,4.54-2.71A49.46,49.46,0,0,0,308,139.7c.83-.06,1-.79,1.34-1.28.57-.75,1.1-1.52,1.66-2.3a.62.62,0,0,1,.21.76,18,18,0,0,0-.78,4.1,12,12,0,0,0,.71,7.13,4.21,4.21,0,0,0,2.37,2.33c2.67,1,5.22.38,7.75-.54.31-.11.62-.25.67-.63l0,.06,0-.06c.42,0,.75-.08.86-.5s-.16-.51-.42-.65a1.73,1.73,0,0,1-.64-.7,10.49,10.49,0,0,1-1.24-6.1,45.49,45.49,0,0,1,2.36-11.75A84.73,84.73,0,0,1,328.4,116a12.88,12.88,0,0,0,.94-2.07c.46-1.37-.79-2.55-2.88-2.8ZM166.08,122.43c-1.13,2.75-2.14,5.18-3.12,7.64-1.64,4.13-2.77,8.35-2,12.83a7.39,7.39,0,0,0,5,6.18c3.7,1.33,9.63-.08,12.45-3,.52-.54.32-1,.08-1.54a1,1,0,0,0-1.31-.6c-.87.25-1.74.53-2.64.71-2,.39-2.93-.26-3.2-2.15a15.37,15.37,0,0,1,.43-5.69,59.2,59.2,0,0,1,8-18.06,13.24,13.24,0,0,1,4.2-4.64c.56-.33.47-.67.16-1.18-2.62-4.38-6.38-5.53-11.08-3.33-4.28,2-7.73,5.06-11.15,8.16-5.68,5.16-10.53,11-15.65,16.67a15.71,15.71,0,0,1-2.65,2.63,1.74,1.74,0,0,1,.17-1.48,77,77,0,0,1,6.06-11.09c2.43-4,5-7.85,7.13-12,.25-.51.58-1,.34-1.59-1.48-3.56-3.57-6.63-7.31-8.4a1.21,1.21,0,0,0-1.63.36,30.77,30.77,0,0,0-2.49,3.42A117,117,0,0,0,134,131.22a54.24,54.24,0,0,0-3.2,13.36,9.65,9.65,0,0,0,3.54,8.19,1.18,1.18,0,0,0,1.91-.05c.54-.6,1.18-1.12,1.69-1.74,4-5,7.62-10.24,12-14.93,4-4.26,7.89-8.63,12.87-11.9A14.12,14.12,0,0,1,166.08,122.43ZM409.69,93a12.85,12.85,0,0,0-1-5.61c-3-6.89-8.58-10.78-15.94-12.73A10.17,10.17,0,0,0,384.53,76a26.26,26.26,0,0,0-3.72,2.59c-4.47,3.84-8,8.28-9.88,13.82-.55,1.61-.24,2.38,1.3,3.26a20.59,20.59,0,0,0,11.38,2.52c.55,0,.85-.14.84-.84-.13-6,3.12-10.4,7.66-14.08a4.52,4.52,0,0,1,4.47-.75c3.9,1.33,7.54,6.81,4.37,11.9-2.77,4.44-6.87,7.51-11.26,10.29-3.57,2.25-7.32,4.25-10.46,7.08-5.24,4.73-9.36,10.15-11.06,17-.29,1.17-.75,2.47.06,3.59A17.12,17.12,0,0,0,379,139.08c.81.16,1.07-.11,1-.87a11.38,11.38,0,0,1,.73-5.29c1.8-5.23,5.38-9.25,9.47-12.95,4.71-4.25,9.52-8.41,13.62-13.24C407.22,102.73,409.74,98.34,409.69,93Zm.81,37.26c0,4.51,1.73,6.95,5.1,7.63.74.15,1.1.07,1.27-.77a99.06,99.06,0,0,1,11-29.57C433,98.38,439.19,90,447.44,83.15a1.3,1.3,0,0,0,.28-2,19.61,19.61,0,0,0-9.66-7.92,1.45,1.45,0,0,0-1.69.32,24.36,24.36,0,0,0-3.3,3.89A125.72,125.72,0,0,0,423.68,94a199.41,199.41,0,0,0-11,26.62A40,40,0,0,0,410.5,130.24ZM187.1,141.67a8.91,8.91,0,0,0,6.24,8.37c1.26.44,1.61.24,1.62-1a21,21,0,0,1,.43-4.39c1-4.18,2.76-8.09,4.27-12.09,2.29-6,4.62-12,9.17-17,.44-.47.31-.8,0-1.23a18.09,18.09,0,0,0-7.43-5.25,2.57,2.57,0,0,0-2.83.47A19.49,19.49,0,0,0,193,117c-2,4.09-2.85,8.47-3.77,12.84A98.33,98.33,0,0,0,187.1,141.67Zm19.09-41.37a2.83,2.83,0,0,0,1.95,2.64,1,1,0,0,0,1.53-.37,83.15,83.15,0,0,1,10.08-11.8c.65-.64.66-1.09,0-1.68a24.31,24.31,0,0,0-10.22-5.7,1.13,1.13,0,0,0-1.59.83,58.68,58.68,0,0,0-2.4,8.89,7.35,7.35,0,0,0,.12,4.59C206.1,98.58,206.64,99.4,206.19,100.3Zm196,50.66c-.45,2.13,3.72,5.36,6.45,5.06a4,4,0,0,0,2.06-.79,9.68,9.68,0,0,0,1.91-2,65.49,65.49,0,0,1,3.8-5.74c.44-.52.2-1-.15-1.39A13.38,13.38,0,0,0,408,141a2.92,2.92,0,0,0-3.27,1.41A19.17,19.17,0,0,0,402.18,151Zm-40.94-1.14c0,3.08,1.55,5,4.62,6,2.05.67,3.72.08,5.39-2.17,1.38-1.89,2.54-3.92,3.91-5.82a1.36,1.36,0,0,0-.08-2,15.21,15.21,0,0,0-6.71-4.58,3.74,3.74,0,0,0-4.91,1.67A14.93,14.93,0,0,0,361.24,149.82Z"/><path class="cls-2" d="M250.11,137.8c-3.11,4-6.25,8-9.32,12.1-.68.9-1.23,1-2.24.42a10.72,10.72,0,0,1-4.41-4.88,4.46,4.46,0,0,1-.07-2.93,63.91,63.91,0,0,1,9.83-22.83c.7-1.06,1.42-2.1,2.22-3.28a3.47,3.47,0,0,0-2.32.79C240,119.68,237,123,234,126.3c-6.21,6.78-11.43,14.25-16.64,21.73-.53.76-1.12,1.48-1.69,2.21s-1,.79-1.72.16a11.06,11.06,0,0,1-4.07-10.05c.78-7.13,3.17-13.82,6.19-20.32a174.22,174.22,0,0,1,8.54-15.79,1.49,1.49,0,0,1,1.9-.84,19.15,19.15,0,0,1,8.16,4.64c.54.5.27,1,0,1.55-1.57,3.76-3.91,7.1-6.09,10.54A63.44,63.44,0,0,0,222.22,132a19.64,19.64,0,0,0-1.11,4.07,5,5,0,0,0,1.77-1.82,166.42,166.42,0,0,1,14.58-17.71,36.64,36.64,0,0,1,9.17-7.27,9.09,9.09,0,0,1,7.82-.34c.3.12.63.19.94.29l1.8,1c1.68,1,1.74,1.13,1,2.85a89.51,89.51,0,0,1-4.52,8.48A129.73,129.73,0,0,0,247.5,133a5.88,5.88,0,0,0-.72,2.76l7.17-9.36.08-.08a14.27,14.27,0,0,0,2.28-2.63c2.45-2.94,5.14-5.69,7.68-8.56h0c.38-.31.77-.6,1.13-.92,2.53-2.26,5.1-4.46,8.36-5.75a7.86,7.86,0,0,1,7.81.66c1.62,1.13,2,2.36,1.24,4.11-.64,1.51-1.28,3-2,4.51-3.1,6.55-6.68,12.91-8.83,19.84a17.26,17.26,0,0,0-1,7.29c.18,1.46.78,1.92,2.28,1.94a8.21,8.21,0,0,0,2.79-.57c.61-.21,1.16-.32,1.46.38a1.27,1.27,0,0,1-.27,1.72c-4,3.19-10.95,5.06-15,.07l0-.05c-1.86-3.78-1.69-7.69-.87-11.66a57.93,57.93,0,0,1,2.89-8.6V128l4.24-8.09c.1-.18.2-.36,0-.54s-.4-.06-.59,0a9.07,9.07,0,0,0-2.76,1.6,52,52,0,0,0-7.27,7.34A120,120,0,0,0,250.11,137.8Z"/><path class="cls-3" d="M74,155.06a14.85,14.85,0,0,1-3.65-1.47,4.12,4.12,0,0,1-2.47-4.85,41.28,41.28,0,0,1,3.76-10.44,174.43,174.43,0,0,1,8.42-15.79c.75-.27,1.22-.83,1-1.54s-1-.48-1.51-.53c-.29,0-.58,0-.87,0l-4-.06c-.24,0-.53,0-.58-.32s.17-.34.35-.45a12.32,12.32,0,0,1,2.15-1.16,41.8,41.8,0,0,1,6.31-1.64,2.62,2.62,0,0,0,1.85-1.26c.68-1.18,1.52-2.28,2.22-3.45.6-1,1.52-1.79,1.74-3v0c.28,0,.43-.19.59-.38,1.24-1.58,2.51-3.14,3.71-4.75a66.35,66.35,0,0,1,5.78-6.78A18.93,18.93,0,0,0,102,93.31l0,0a6.32,6.32,0,0,0,2.58-2,61.94,61.94,0,0,1,13.36-10.43c.52-.3,1.23-.57,1.26-1.24,0-1.21.73-1.11,1.59-.9a40.13,40.13,0,0,1,10.88,4.34c1,.6,1.18,1.22.54,2.32a58,58,0,0,0-4.76,11.86c-1.11,3.44-2,7-2.8,10.5-1.25,5.73-2.38,11.47-3.25,17.26A132.67,132.67,0,0,0,120,141.59c-.09,4,0,8.06,0,12.08,0,1.63-.08,1.73-1.83,1.7-1,0-1.95-.47-3-.28h0c-1.57-1.06-3.48-1.31-5.2-2-.86-.86-2-1.4-2-2.94a160.71,160.71,0,0,1,1.89-27c.24-1.4,0-1.69-1.54-1.75-2.58-.11-5.16,0-7.73-.29-3.68-.36-7.4-.07-11.09-.43a2.09,2.09,0,0,0-2.18,1.3c-1.3,2.61-2.81,5.15-4,7.8a97.92,97.92,0,0,0-4.82,12.75,56.55,56.55,0,0,0-2.22,10.26C76.12,155,76.22,155.05,74,155.06Zm18.09-39.92c.44,0,.64.07.84.06,5.73-.41,11.47-.67,17.22-.74.86,0,1-.46,1.13-1.1.76-3.8,1.61-7.57,2.61-11.32s2-7.41,2.73-11.16c.06-.27.24-.59,0-.78s-.55.06-.8.18a23.87,23.87,0,0,0-4.4,2.71C103.5,99.13,97.64,106.88,92.08,115.14Z"/><path class="cls-2" d="M166.08,122.43a14.12,14.12,0,0,0-3.23,1.72c-5,3.27-8.88,7.64-12.87,11.9-4.38,4.69-8,9.95-12,14.93-.51.62-1.15,1.14-1.69,1.74a1.18,1.18,0,0,1-1.91.05,9.65,9.65,0,0,1-3.54-8.19,54.24,54.24,0,0,1,3.2-13.36,117,117,0,0,1,11.84-24.94,30.77,30.77,0,0,1,2.49-3.42,1.21,1.21,0,0,1,1.63-.36c3.74,1.77,5.83,4.84,7.31,8.4.24.57-.09,1.08-.34,1.59-2.08,4.17-4.7,8-7.13,12a77,77,0,0,0-6.06,11.09,1.74,1.74,0,0,0-.17,1.48,15.71,15.71,0,0,0,2.65-2.63c5.12-5.64,10-11.51,15.65-16.67,3.42-3.1,6.87-6.15,11.15-8.16,4.7-2.2,8.46-1.05,11.08,3.33.31.51.4.85-.16,1.18a13.24,13.24,0,0,0-4.2,4.64,59.2,59.2,0,0,0-8,18.06,15.37,15.37,0,0,0-.43,5.69c.27,1.89,1.23,2.54,3.2,2.15.9-.18,1.77-.46,2.64-.71a1,1,0,0,1,1.31.6c.24.52.44,1-.08,1.54-2.82,2.9-8.75,4.31-12.45,3a7.39,7.39,0,0,1-5-6.18c-.82-4.48.31-8.7,2-12.83C163.94,127.61,165,125.18,166.08,122.43Z"/><path class="cls-4" d="M409.7,93c0,5.36-2.48,9.75-5.87,13.75-4.1,4.83-8.91,9-13.62,13.24-4.09,3.7-7.67,7.72-9.47,12.95a11.38,11.38,0,0,0-.73,5.29c.1.76-.16,1-1,.87a17.12,17.12,0,0,1-10.81-6.71c-.81-1.12-.35-2.42-.06-3.59,1.7-6.83,5.82-12.25,11.06-17,3.14-2.83,6.89-4.83,10.46-7.08,4.39-2.78,8.49-5.85,11.26-10.29,3.17-5.09-.47-10.57-4.37-11.9a4.52,4.52,0,0,0-4.47.75c-4.54,3.68-7.79,8.06-7.66,14.08,0,.7-.29.82-.84.84a20.59,20.59,0,0,1-11.38-2.52c-1.54-.88-1.85-1.65-1.3-3.26,1.86-5.54,5.41-10,9.88-13.82A26.26,26.26,0,0,1,384.53,76a10.17,10.17,0,0,1,8.18-1.37c7.36,2,12.94,5.84,15.94,12.73A13,13,0,0,1,409.7,93Z"/><path class="cls-5" d="M308,139.7a49.46,49.46,0,0,1-7.54,7.91,20.21,20.21,0,0,1-4.54,2.71c-3.3,1.36-6.47-.85-8-3.26-2.47-3.94-2.51-8.24-1.6-12.53a45.16,45.16,0,0,1,15.76-25.79,17.85,17.85,0,0,1,7.05-3.68,4,4,0,0,1,3.35.38,15,15,0,0,1,5.7,6c.22.45.45.86-.36,1.06-5.76,1.43-9.88,5.09-13.57,9.28a40.11,40.11,0,0,0-8.57,15,21.48,21.48,0,0,0-.93,5.78c0,2.23,1.15,2.9,3.17,1.8a17.84,17.84,0,0,0,4.83-4.1c5.14-5.95,9.17-12.59,13-19.34,1.48-2.62,3-5.22,4.28-8a6.08,6.08,0,0,0,1.17-2,1.34,1.34,0,0,1,1.66-.81c1.23.18,2.33.74,3.53,1l.06,0c.34.22.67.45,1,.65,1.59.91,1.72,1.26.94,2.85a107.36,107.36,0,0,0-6,14.77c-1.35,4.27-2.54,8.59-2.43,13.1,0,2.15.25,4.32,2,6,.36.33,0,.56-.09.83l0,.06,0-.06c-1.32.35-2.62.76-4,1-3.42.71-5.87-.44-6.74-3.14a9.83,9.83,0,0,1-.49-2.7c-.12-4.69,1.24-9.1,2.81-13.46-.12-.25-.17-.49.17-.66.17.29-.07.47-.18.67Z"/><path class="cls-4" d="M410.5,130.24a40,40,0,0,1,2.18-9.61,199.41,199.41,0,0,1,11-26.62,125.72,125.72,0,0,1,9.39-16.55,24.36,24.36,0,0,1,3.3-3.89,1.45,1.45,0,0,1,1.69-.32,19.61,19.61,0,0,1,9.66,7.92,1.3,1.3,0,0,1-.28,2C439.19,90,433,98.38,427.9,107.53a99.06,99.06,0,0,0-11,29.57c-.17.84-.53.92-1.27.77C412.23,137.19,410.47,134.75,410.5,130.24Z"/><path class="cls-4" d="M187.1,141.67a98.33,98.33,0,0,1,2.11-11.88C190.13,125.42,191,121,193,117a19.49,19.49,0,0,1,5.55-7.39,2.57,2.57,0,0,1,2.83-.47,18.09,18.09,0,0,1,7.43,5.25c.35.43.48.76,0,1.23-4.55,4.91-6.88,10.92-9.17,17-1.51,4-3.31,7.91-4.27,12.09A21,21,0,0,0,195,149c0,1.28-.36,1.48-1.62,1A8.91,8.91,0,0,1,187.1,141.67Z"/><path class="cls-6" d="M206.19,100.3c.45-.9-.09-1.72-.5-2.6a7.35,7.35,0,0,1-.12-4.59,58.68,58.68,0,0,1,2.4-8.89,1.13,1.13,0,0,1,1.59-.83,24.31,24.31,0,0,1,10.22,5.7c.63.59.62,1,0,1.68a83.15,83.15,0,0,0-10.08,11.8,1,1,0,0,1-1.53.37A2.83,2.83,0,0,1,206.19,100.3Z"/><path class="cls-5" d="M402.18,151a19.17,19.17,0,0,1,2.51-8.57A2.92,2.92,0,0,1,408,141a13.38,13.38,0,0,1,8.29,5.09c.35.43.59.87.15,1.39a65.49,65.49,0,0,0-3.8,5.74,9.68,9.68,0,0,1-1.91,2,4,4,0,0,1-2.06.79C405.9,156.32,401.73,153.09,402.18,151Z"/><path class="cls-6" d="M361.24,149.82a14.93,14.93,0,0,1,2.22-6.92,3.74,3.74,0,0,1,4.91-1.67,15.21,15.21,0,0,1,6.71,4.58,1.36,1.36,0,0,1,.08,2c-1.37,1.9-2.53,3.93-3.91,5.82-1.67,2.25-3.34,2.84-5.39,2.17C362.79,154.77,361.22,152.9,361.24,149.82Z"/><path class="cls-7" d="M115.24,155.09c1-.19,2,.26,3,.28,1.75,0,1.85-.07,1.83-1.7,0-4-.11-8,0-12.08a132.67,132.67,0,0,1,1.35-16.53c.87-5.79,2-11.53,3.25-17.26.77-3.54,1.69-7.06,2.8-10.5a58,58,0,0,1,4.76-11.86c.64-1.1.48-1.72-.54-2.32a40.13,40.13,0,0,0-10.88-4.34c-.86-.21-1.55-.31-1.59.9,0,.67-.74.94-1.26,1.24a61.94,61.94,0,0,0-13.36,10.43,6.32,6.32,0,0,1-2.58,2,42.93,42.93,0,0,1,6.21-6A54.25,54.25,0,0,1,118,80.41c.4-.22.79-.48.76-1-.08-1.34.78-1.24,1.72-1a37.64,37.64,0,0,1,8.67,3,18.65,18.65,0,0,1,3.42,2,1.12,1.12,0,0,1,.39,1.64c-3.75,7-5.84,14.44-7.68,22-1.47,6-2.54,12.17-3.46,18.31-.06.35,0,.71-.08,1.07-.26.26-.18.6-.23.9A125.38,125.38,0,0,0,120.43,140a127.36,127.36,0,0,0,.11,15.26c0,.17-.09.33-.13.5A12,12,0,0,1,115.24,155.09Z"/><path class="cls-8" d="M262,148.4c4.06,5,11,3.12,15-.07a1.27,1.27,0,0,0,.27-1.72c-.3-.7-.85-.59-1.46-.38a8.21,8.21,0,0,1-2.79.57c-1.5,0-2.1-.48-2.28-1.94a17.26,17.26,0,0,1,1-7.29c2.15-6.93,5.73-13.29,8.83-19.84.7-1.48,1.34-3,2-4.51.75-1.75.38-3-1.24-4.11a7.86,7.86,0,0,0-7.81-.66c-3.26,1.29-5.83,3.49-8.36,5.75-.36.32-.75.61-1.13.92.53-1.65,2.15-2.38,3.34-3.42a18.63,18.63,0,0,1,5.59-3.51,9.66,9.66,0,0,1,7.62-.06c2.47,1.1,3.58,3,2.41,5.52-1.54,3.34-2.92,6.75-4.64,10a88.5,88.5,0,0,0-4.9,10.5c-1.15,3.1-2.3,6.21-2.25,9.6,0,2.48.88,2.74,3.33,2.41.45-.06.87-.29,1.31-.36.77-.12,1.5-.11,1.89.74a1.65,1.65,0,0,1-.44,2.18c-2.78,2-5.81,3.56-9.4,3.18a7.87,7.87,0,0,1-5.47-2.52A1.2,1.2,0,0,1,262,148.4Z"/><path class="cls-7" d="M74,155.06c2.23,0,2.13,0,2.33-2.27a56.55,56.55,0,0,1,2.22-10.26,97.92,97.92,0,0,1,4.82-12.75c1.2-2.65,2.71-5.19,4-7.8a2.09,2.09,0,0,1,2.18-1.3c3.69.36,7.41.07,11.09.43,2.57.26,5.15.18,7.73.29,1.53.06,1.78.35,1.54,1.75a160.71,160.71,0,0,0-1.89,27c0,1.54,1.18,2.08,2,2.94l-.07.08-.47-.08a2.8,2.8,0,0,0-1.09-.68.47.47,0,0,0-.42-.35.11.11,0,0,0-.06-.17,5.08,5.08,0,0,1-.19-1.65c0-4.13-.05-8.26.17-12.39.3-4.81.78-9.6,1.52-14.37.22-1.48.14-1.57-1.42-1.64-6.11-.26-12.22-.5-18.33-.78a1.68,1.68,0,0,0-1.77,1c-5.21,9.24-9.24,18.87-11.06,29.28-.18,1-.28,2.05-.37,3.08-.14,1.47-.19,1.52-1.62,1.06C74.57,155.36,74.21,155.34,74,155.06Z"/><path class="cls-9" d="M254,126.39l-7.17,9.36a5.88,5.88,0,0,1,.72-2.76,129.73,129.73,0,0,1,6.16-11.43,89.51,89.51,0,0,0,4.52-8.48c.75-1.72.69-1.87-1-2.85l-1.8-1a4.31,4.31,0,0,1,3.45,1.6c.86.86.27,2.1-.22,3-1.27,2.39-2.55,4.77-3.81,7.16a41.72,41.72,0,0,1-2.57,4.14,3.15,3.15,0,0,0-.61,1.28c-.08.54-.11,1-.74,1.36a.74.74,0,0,0-.06,1.24c.56.42.68-.21.87-.5.45-.7,1.17-1.21,1.38-2.09C253.23,125.76,253.65,126.41,254,126.39Z"/><path class="cls-8" d="M321.91,149.27c.11-.27.45-.5.09-.83-1.78-1.64-2-3.81-2-6-.11-4.51,1.08-8.83,2.43-13.1a107.36,107.36,0,0,1,6-14.77c.78-1.59.65-1.94-.94-2.85-.35-.2-.68-.43-1-.65,2.09.25,3.34,1.43,2.88,2.8a12.88,12.88,0,0,1-.94,2.07,84.73,84.73,0,0,0-5.57,13.59,45.49,45.49,0,0,0-2.36,11.75,10.49,10.49,0,0,0,1.24,6.1,1.73,1.73,0,0,0,.64.7c.26.14.5.31.42.65S322.33,149.31,321.91,149.27Z"/><path class="cls-8" d="M250.11,137.8a120,120,0,0,1,7.52-9.49A52,52,0,0,1,264.9,121a9.07,9.07,0,0,1,2.76-1.6c.19-.06.4-.16.59,0s.09.36,0,.54L264,128a4.64,4.64,0,0,1,.8-2.6c.68-1.4,1.45-2.77,2.18-4.15.15-.28.4-.61.09-.87s-.63.08-.87.25a37.44,37.44,0,0,0-5.11,4.54c-2.57,2.5-4.65,5.37-6.95,8.08-1.07,1.26-2,2.6-3.08,3.89C250.82,137.43,250.65,137.88,250.11,137.8Z"/><path class="cls-8" d="M313.55,131c-1.58,4.36-2.94,8.77-2.82,13.46a9.83,9.83,0,0,0,.49,2.7c.87,2.7,3.32,3.85,6.74,3.14,1.34-.28,2.64-.69,4-1-.05.38-.36.52-.67.63-2.53.92-5.08,1.52-7.75.54a4.21,4.21,0,0,1-2.37-2.33,12,12,0,0,1-.71-7.13,18,18,0,0,1,.78-4.1.62.62,0,0,0-.21-.76c-.56.78-1.09,1.55-1.66,2.3-.37.49-.51,1.22-1.34,1.28l5.54-8.68Z"/><path class="cls-7" d="M88.75,109.11c-.22,1.19-1.14,2-1.74,3-.7,1.17-1.54,2.27-2.22,3.45a2.62,2.62,0,0,1-1.85,1.26,41.8,41.8,0,0,0-6.31,1.64,12.32,12.32,0,0,0-2.15,1.16c-.18.11-.4.21-.35.45s.34.31.58.32l4,.06c.29,0,.58,0,.87,0,.56,0,1.33-.13,1.51.53s-.28,1.27-1,1.54a3.28,3.28,0,0,1,.24-.54c.56-.87.13-1.11-.74-1.13-1.83,0-3.65-.11-5.48-.2-.29,0-.74.17-.86-.24s.23-.57.48-.78a11,11,0,0,1,6-2.47,7.48,7.48,0,0,0,6.44-4.34A13.2,13.2,0,0,1,88.75,109.11Z"/><path class="cls-7" d="M102,93.31a18.93,18.93,0,0,1-3.17,3.91A66.35,66.35,0,0,0,93,104c-1.2,1.61-2.47,3.17-3.71,4.75-.16.19-.31.38-.59.38a54.75,54.75,0,0,1,4.87-6.6c2.33-2.89,4.76-5.71,7.37-8.38C101.29,93.84,101.51,93.43,102,93.31Z"/><path class="cls-8" d="M264,128.09a57.93,57.93,0,0,0-2.89,8.6c-.82,4-1,7.88.87,11.66a4.81,4.81,0,0,1-1.69-3.8,26.62,26.62,0,0,1,1.12-11,40.4,40.4,0,0,1,1.82-4.8C263.39,128.43,263.55,128.13,264,128.09Z"/><path class="cls-10" d="M120.54,155.29a127.36,127.36,0,0,1-.11-15.26,125.38,125.38,0,0,1,1.07-12.83c0-.3,0-.64.23-.9a97.78,97.78,0,0,1-.88,10.66,25,25,0,0,0-.1,3.68c0,4.49,0,9,0,13.49C120.69,154.47,121.47,155,120.54,155.29Z"/><path class="cls-8" d="M264,115.12c-2.54,2.87-5.23,5.62-7.68,8.56a14.27,14.27,0,0,1-2.28,2.63,1.78,1.78,0,0,1,.62-1.37c2.57-3,5-6.07,7.84-8.86C262.91,115.67,263.26,115.11,264,115.12Z"/><path class="cls-8" d="M326.4,111.08c-1.2-.23-2.3-.79-3.53-1a1.34,1.34,0,0,0-1.66.81,6.08,6.08,0,0,1-1.17,2c-.05-1.22.76-2.14,1.26-3.17a.49.49,0,0,1,.39-.24c1.59.2,3.23.24,4.59,1.22C326.36,110.81,326.36,111,326.4,111.08Z"/><path class="cls-10" d="M107.93,137.86c-.22,4.13-.18,8.26-.17,12.39a5.08,5.08,0,0,0,.19,1.65.62.62,0,0,1-.51-.59,117.19,117.19,0,0,1,.14-12.85C107.59,138.26,107.81,138.06,107.93,137.86Z"/><path class="cls-10" d="M115.24,155.09a12,12,0,0,0,5.17.7c.24.23.16.53-.12.52a15.48,15.48,0,0,1-5.57-.88c-.13-.06-.21-.24-.31-.36l.85,0Z"/><path class="cls-7" d="M115.26,155.09l-.85,0h0c-1.45-.67-3.07-1-4.4-1.89l.07-.08C111.78,153.78,113.69,154,115.26,155.09Z"/><path class="cls-10" d="M110,153.18c1.33.93,3,1.22,4.4,1.89a7.55,7.55,0,0,1-4.87-2Z"/><path class="cls-10" d="M108,152.07a.47.47,0,0,1,.42.35Z"/><path class="cls-11" d="M92.08,115.14c5.56-8.26,11.42-16,19.3-22.15a23.87,23.87,0,0,1,4.4-2.71c.25-.12.53-.38.8-.18s.09.51,0,.78c-.76,3.75-1.73,7.46-2.73,11.16s-1.85,7.52-2.61,11.32c-.13.64-.27,1.09-1.13,1.1-5.75.07-11.49.33-17.22.74C92.72,115.21,92.52,115.17,92.08,115.14Z"/><path class="cls-8" d="M313.53,131c.11-.2.35-.38.18-.67-.34.17-.29.41-.17.66Z"/></g></g></svg>